<mxfile host="app.diagrams.net" modified="2023-04-13T22:22:07.599Z" agent="Mozilla/5.0 (Windows NT 10.0; Win64; x64) AppleWebKit/537.36 (KHTML, like Gecko) Chrome/111.0.0.0 Safari/537.36" etag="01w_YAzVSM334LsyrO5u" version="21.1.7" type="device">
  <diagram name="Page-1" id="2j9IRQZCQIeeeT5njnSz">
    <mxGraphModel dx="2222" dy="1904" grid="1" gridSize="10" guides="1" tooltips="1" connect="1" arrows="1" fold="1" page="1" pageScale="1" pageWidth="850" pageHeight="1100" math="0" shadow="0">
      <root>
        <mxCell id="0" />
        <mxCell id="1" parent="0" />
        <mxCell id="C7viJs1iNthSXS2Z9-nM-1" value="" style="verticalLabelPosition=bottom;html=1;verticalAlign=top;align=center;strokeColor=none;fillColor=#00BEF2;shape=mxgraph.azure.computer;pointerEvents=1;" parent="1" vertex="1">
          <mxGeometry x="-3" y="280" width="74" height="70" as="geometry" />
        </mxCell>
        <mxCell id="C7viJs1iNthSXS2Z9-nM-2" value="Display Unit" style="text;html=1;strokeColor=none;fillColor=none;align=center;verticalAlign=middle;whiteSpace=wrap;rounded=0;fontSize=20;" parent="1" vertex="1">
          <mxGeometry x="-26" y="370" width="120" height="30" as="geometry" />
        </mxCell>
        <mxCell id="C7viJs1iNthSXS2Z9-nM-4" value="" style="shape=image;html=1;verticalAlign=top;verticalLabelPosition=bottom;labelBackgroundColor=#ffffff;imageAspect=0;aspect=fixed;image=https://cdn4.iconfinder.com/data/icons/crime-and-security-24/64/23-128.png;fontSize=20;" parent="1" vertex="1">
          <mxGeometry x="-10" y="6.989999999999995" width="88" height="88" as="geometry" />
        </mxCell>
        <mxCell id="C7viJs1iNthSXS2Z9-nM-5" value="Raw Video &lt;br&gt;(30 frames)" style="text;html=1;strokeColor=none;fillColor=none;align=center;verticalAlign=middle;whiteSpace=wrap;rounded=0;fontSize=20;" parent="1" vertex="1">
          <mxGeometry x="150" y="-10" width="120" height="30" as="geometry" />
        </mxCell>
        <mxCell id="C7viJs1iNthSXS2Z9-nM-12" value="Labeled Video" style="text;html=1;strokeColor=none;fillColor=none;align=center;verticalAlign=middle;whiteSpace=wrap;rounded=0;fontSize=20;" parent="1" vertex="1">
          <mxGeometry x="150" y="320" width="130" height="30" as="geometry" />
        </mxCell>
        <mxCell id="C7viJs1iNthSXS2Z9-nM-15" value="" style="rounded=0;whiteSpace=wrap;html=1;fontSize=30;fillColor=#d5e8d4;strokeColor=#82b366;" parent="1" vertex="1">
          <mxGeometry x="320" y="80" width="280" height="220" as="geometry" />
        </mxCell>
        <mxCell id="C7viJs1iNthSXS2Z9-nM-17" value="Smart Gateway" style="text;html=1;strokeColor=none;fillColor=none;align=center;verticalAlign=middle;whiteSpace=wrap;rounded=0;fontSize=25;fontColor=#0072CE;fontStyle=1" parent="1" vertex="1">
          <mxGeometry x="300" y="80" width="230" height="30" as="geometry" />
        </mxCell>
        <mxCell id="C7viJs1iNthSXS2Z9-nM-19" value="CCTV" style="text;html=1;strokeColor=none;fillColor=none;align=center;verticalAlign=middle;whiteSpace=wrap;rounded=0;fontSize=20;" parent="1" vertex="1">
          <mxGeometry x="-20" y="80" width="120" height="30" as="geometry" />
        </mxCell>
        <mxCell id="C7viJs1iNthSXS2Z9-nM-22" value="" style="sketch=0;aspect=fixed;pointerEvents=1;shadow=0;dashed=0;html=1;strokeColor=#10739e;labelPosition=center;verticalLabelPosition=bottom;verticalAlign=top;align=center;fillColor=#b1ddf0;shape=mxgraph.mscae.general.video;fontSize=30;" parent="1" vertex="1">
          <mxGeometry x="490" y="130" width="49" height="50" as="geometry" />
        </mxCell>
        <mxCell id="C7viJs1iNthSXS2Z9-nM-25" value="&lt;font style=&quot;font-size: 20px;&quot;&gt;raw video&lt;/font&gt;" style="text;html=1;strokeColor=none;fillColor=none;align=center;verticalAlign=middle;whiteSpace=wrap;rounded=0;fontSize=18;fontColor=#000000;" parent="1" vertex="1">
          <mxGeometry x="448" y="180" width="127" height="20" as="geometry" />
        </mxCell>
        <mxCell id="C7viJs1iNthSXS2Z9-nM-26" value="" style="endArrow=classic;html=1;rounded=0;fontSize=20;fontColor=#000000;fillColor=#b1ddf0;strokeColor=#000000;strokeWidth=2;exitX=0.5;exitY=0;exitDx=0;exitDy=0;exitPerimeter=0;" parent="1" source="C7viJs1iNthSXS2Z9-nM-22" edge="1">
          <mxGeometry width="50" height="50" relative="1" as="geometry">
            <mxPoint x="600" y="128" as="sourcePoint" />
            <mxPoint x="1180" y="145" as="targetPoint" />
            <Array as="points">
              <mxPoint x="515" />
              <mxPoint x="1080" />
              <mxPoint x="1080" y="145" />
            </Array>
          </mxGeometry>
        </mxCell>
        <mxCell id="C7viJs1iNthSXS2Z9-nM-27" value="&lt;br&gt;&lt;span style=&quot;font-size: 20px;&quot;&gt;&lt;b&gt;&lt;br&gt;&lt;/b&gt;&lt;/span&gt;" style="edgeLabel;html=1;align=center;verticalAlign=middle;resizable=0;points=[];fontSize=18;fontColor=#000000;" parent="C7viJs1iNthSXS2Z9-nM-26" vertex="1" connectable="0">
          <mxGeometry x="0.4741" y="1" relative="1" as="geometry">
            <mxPoint as="offset" />
          </mxGeometry>
        </mxCell>
        <mxCell id="C7viJs1iNthSXS2Z9-nM-28" value="" style="endArrow=classic;html=1;rounded=0;fontSize=18;fontColor=#FF0000;fillColor=#b1ddf0;strokeColor=#000000;strokeWidth=2;entryX=-0.007;entryY=0.683;entryDx=0;entryDy=0;entryPerimeter=0;" parent="1" target="C7viJs1iNthSXS2Z9-nM-41" edge="1">
          <mxGeometry width="50" height="50" relative="1" as="geometry">
            <mxPoint x="540" y="160" as="sourcePoint" />
            <mxPoint x="800" y="167" as="targetPoint" />
          </mxGeometry>
        </mxCell>
        <mxCell id="C7viJs1iNthSXS2Z9-nM-30" value="&lt;br&gt;&lt;font color=&quot;#000000&quot;&gt;&lt;span style=&quot;font-size: 20px;&quot;&gt;&lt;b&gt;&lt;br&gt;&lt;/b&gt;&lt;/span&gt;&lt;/font&gt;" style="edgeLabel;html=1;align=center;verticalAlign=middle;resizable=0;points=[];fontSize=25;fontColor=#FF0000;" parent="C7viJs1iNthSXS2Z9-nM-28" vertex="1" connectable="0">
          <mxGeometry x="0.2515" y="-2" relative="1" as="geometry">
            <mxPoint x="1" as="offset" />
          </mxGeometry>
        </mxCell>
        <mxCell id="C7viJs1iNthSXS2Z9-nM-29" value="" style="points=[];aspect=fixed;html=1;align=center;shadow=0;dashed=0;image;image=img/lib/allied_telesis/security/Router_VPN.svg;fontSize=25;fontColor=#FF0000;" parent="1" vertex="1">
          <mxGeometry x="355" y="166.99" width="70.47" height="50" as="geometry" />
        </mxCell>
        <mxCell id="C7viJs1iNthSXS2Z9-nM-31" value="" style="sketch=0;aspect=fixed;pointerEvents=1;shadow=0;dashed=0;html=1;strokeColor=#10739e;labelPosition=center;verticalLabelPosition=bottom;verticalAlign=top;align=center;fillColor=#b1ddf0;shape=mxgraph.mscae.general.video;fontSize=30;" parent="1" vertex="1">
          <mxGeometry x="686.75" y="6.989999999999995" width="23.52" height="24" as="geometry" />
        </mxCell>
        <mxCell id="C7viJs1iNthSXS2Z9-nM-32" value="&lt;font style=&quot;font-size: 20px;&quot;&gt;20 frames&lt;/font&gt;" style="text;html=1;strokeColor=none;fillColor=none;align=center;verticalAlign=middle;whiteSpace=wrap;rounded=0;fontSize=18;fontColor=#000000;" parent="1" vertex="1">
          <mxGeometry x="648.5" y="31.990000000000002" width="100" height="20" as="geometry" />
        </mxCell>
        <mxCell id="C7viJs1iNthSXS2Z9-nM-35" value="" style="sketch=0;aspect=fixed;pointerEvents=1;shadow=0;dashed=0;html=1;strokeColor=#10739e;labelPosition=center;verticalLabelPosition=bottom;verticalAlign=top;align=center;fillColor=#b1ddf0;shape=mxgraph.mscae.general.video;fontSize=30;" parent="1" vertex="1">
          <mxGeometry x="686.75" y="106" width="23.52" height="24" as="geometry" />
        </mxCell>
        <mxCell id="C7viJs1iNthSXS2Z9-nM-36" value="&lt;font style=&quot;font-size: 20px;&quot;&gt;10 frames&lt;/font&gt;" style="text;html=1;strokeColor=none;fillColor=none;align=center;verticalAlign=middle;whiteSpace=wrap;rounded=0;fontSize=18;fontColor=#000000;" parent="1" vertex="1">
          <mxGeometry x="638.5" y="134.99" width="120" height="20" as="geometry" />
        </mxCell>
        <mxCell id="C7viJs1iNthSXS2Z9-nM-38" value="" style="sketch=0;aspect=fixed;pointerEvents=1;shadow=0;dashed=0;html=1;strokeColor=#b46504;labelPosition=center;verticalLabelPosition=bottom;verticalAlign=top;align=center;fillColor=#fad7ac;shape=mxgraph.mscae.general.video;fontSize=30;" parent="1" vertex="1">
          <mxGeometry x="487" y="216.99" width="49" height="50" as="geometry" />
        </mxCell>
        <mxCell id="C7viJs1iNthSXS2Z9-nM-39" value="&lt;font style=&quot;font-size: 20px;&quot;&gt;labeled video&lt;/font&gt;" style="text;html=1;strokeColor=none;fillColor=none;align=center;verticalAlign=middle;whiteSpace=wrap;rounded=0;fontSize=18;fontColor=#000000;" parent="1" vertex="1">
          <mxGeometry x="440" y="270" width="135" height="20" as="geometry" />
        </mxCell>
        <mxCell id="C7viJs1iNthSXS2Z9-nM-40" value="" style="ellipse;shape=cloud;whiteSpace=wrap;html=1;fontSize=15;fontColor=#FF0000;strokeColor=#0080f0;strokeWidth=2;" parent="1" vertex="1">
          <mxGeometry x="1158" y="56.989999999999995" width="220" height="160" as="geometry" />
        </mxCell>
        <mxCell id="C7viJs1iNthSXS2Z9-nM-41" value="" style="html=1;verticalLabelPosition=bottom;align=center;labelBackgroundColor=#ffffff;verticalAlign=top;strokeWidth=2;strokeColor=#0080F0;shadow=0;dashed=0;shape=mxgraph.ios7.icons.cloud;fontSize=15;fontColor=#FF0000;" parent="1" vertex="1">
          <mxGeometry x="810" y="70" width="182" height="130" as="geometry" />
        </mxCell>
        <mxCell id="C7viJs1iNthSXS2Z9-nM-42" value="Fog" style="text;html=1;strokeColor=none;fillColor=none;align=center;verticalAlign=middle;whiteSpace=wrap;rounded=0;fontSize=25;fontColor=#0072CE;fontStyle=1" parent="1" vertex="1">
          <mxGeometry x="790" y="29" width="230" height="30" as="geometry" />
        </mxCell>
        <mxCell id="C7viJs1iNthSXS2Z9-nM-43" value="&lt;font style=&quot;font-size: 20px;&quot;&gt;Tiny Yolov3&lt;/font&gt;" style="rounded=0;whiteSpace=wrap;html=1;fontSize=15;fillColor=#b0e3e6;strokeColor=#0e8088;" parent="1" vertex="1">
          <mxGeometry x="846.5" y="133" width="109" height="44" as="geometry" />
        </mxCell>
        <mxCell id="C7viJs1iNthSXS2Z9-nM-46" value="" style="endArrow=classic;html=1;rounded=0;fontSize=15;fontColor=#000000;fillColor=#fad7ac;strokeColor=#000000;entryX=1;entryY=0.5;entryDx=0;entryDy=0;entryPerimeter=0;strokeWidth=2;" parent="1" target="C7viJs1iNthSXS2Z9-nM-38" edge="1">
          <mxGeometry width="50" height="50" relative="1" as="geometry">
            <mxPoint x="920" y="200" as="sourcePoint" />
            <mxPoint x="540" y="240" as="targetPoint" />
            <Array as="points">
              <mxPoint x="920" y="200" />
              <mxPoint x="920" y="240" />
              <mxPoint x="700" y="242" />
            </Array>
          </mxGeometry>
        </mxCell>
        <mxCell id="C7viJs1iNthSXS2Z9-nM-48" value="" style="endArrow=classic;html=1;rounded=0;fontSize=18;fontColor=#FF0000;fillColor=#fad7ac;strokeColor=#000000;entryX=1.021;entryY=0.848;entryDx=0;entryDy=0;entryPerimeter=0;exitX=0.567;exitY=0.96;exitDx=0;exitDy=0;exitPerimeter=0;strokeWidth=2;" parent="1" source="C7viJs1iNthSXS2Z9-nM-40" target="C7viJs1iNthSXS2Z9-nM-38" edge="1">
          <mxGeometry width="50" height="50" relative="1" as="geometry">
            <mxPoint x="1400" y="210" as="sourcePoint" />
            <mxPoint x="610" y="260" as="targetPoint" />
            <Array as="points">
              <mxPoint x="1283" y="260" />
              <mxPoint x="1080" y="260" />
            </Array>
          </mxGeometry>
        </mxCell>
        <mxCell id="C7viJs1iNthSXS2Z9-nM-53" value="Cloud" style="text;html=1;strokeColor=none;fillColor=none;align=center;verticalAlign=middle;whiteSpace=wrap;rounded=0;fontSize=25;fontColor=#0072CE;fontStyle=1" parent="1" vertex="1">
          <mxGeometry x="1162.5" y="26.990000000000002" width="230" height="30" as="geometry" />
        </mxCell>
        <mxCell id="C7viJs1iNthSXS2Z9-nM-54" value="&lt;font style=&quot;font-size: 20px;&quot;&gt;Yolov3&lt;/font&gt;" style="rounded=0;whiteSpace=wrap;html=1;fontSize=15;fillColor=#b0e3e6;strokeColor=#0e8088;" parent="1" vertex="1">
          <mxGeometry x="1223" y="122.99" width="109" height="44" as="geometry" />
        </mxCell>
        <mxCell id="C7viJs1iNthSXS2Z9-nM-9" value="" style="endArrow=classic;html=1;rounded=0;fontSize=20;fontColor=#FF0000;entryX=-0.033;entryY=0.408;entryDx=0;entryDy=0;strokeWidth=2;entryPerimeter=0;" parent="1" target="C7viJs1iNthSXS2Z9-nM-29" edge="1">
          <mxGeometry width="50" height="50" relative="1" as="geometry">
            <mxPoint x="80" y="40" as="sourcePoint" />
            <mxPoint x="280" y="70" as="targetPoint" />
            <Array as="points">
              <mxPoint x="200" y="40" />
              <mxPoint x="200" y="187" />
            </Array>
          </mxGeometry>
        </mxCell>
        <mxCell id="C7viJs1iNthSXS2Z9-nM-11" value="&lt;br&gt;&lt;b&gt;&lt;br&gt;&lt;/b&gt;" style="edgeLabel;html=1;align=center;verticalAlign=middle;resizable=0;points=[];fontSize=20;" parent="C7viJs1iNthSXS2Z9-nM-9" vertex="1" connectable="0">
          <mxGeometry x="-0.1859" relative="1" as="geometry">
            <mxPoint y="-1" as="offset" />
          </mxGeometry>
        </mxCell>
        <mxCell id="C7viJs1iNthSXS2Z9-nM-10" value="" style="endArrow=classic;html=1;rounded=0;fontSize=20;strokeWidth=2;" parent="1" edge="1">
          <mxGeometry width="50" height="50" relative="1" as="geometry">
            <mxPoint x="350" y="216" as="sourcePoint" />
            <mxPoint x="80" y="320" as="targetPoint" />
            <Array as="points">
              <mxPoint x="200" y="216" />
              <mxPoint x="200" y="320" />
            </Array>
          </mxGeometry>
        </mxCell>
        <mxCell id="C7viJs1iNthSXS2Z9-nM-55" value="&lt;br&gt;" style="edgeLabel;html=1;align=center;verticalAlign=middle;resizable=0;points=[];fontSize=18;fontColor=#FF0000;" parent="C7viJs1iNthSXS2Z9-nM-10" vertex="1" connectable="0">
          <mxGeometry x="-0.3814" y="2" relative="1" as="geometry">
            <mxPoint as="offset" />
          </mxGeometry>
        </mxCell>
        <mxCell id="XMPrJLfJ1CrVb4G97n1Z-3" value="" style="endArrow=classic;html=1;rounded=0;strokeWidth=2;entryX=0;entryY=0.5;entryDx=0;entryDy=0;entryPerimeter=0;exitX=0.636;exitY=-0.001;exitDx=0;exitDy=0;exitPerimeter=0;" parent="1" source="C7viJs1iNthSXS2Z9-nM-29" target="C7viJs1iNthSXS2Z9-nM-22" edge="1">
          <mxGeometry width="50" height="50" relative="1" as="geometry">
            <mxPoint x="400" y="160" as="sourcePoint" />
            <mxPoint x="450" y="110" as="targetPoint" />
            <Array as="points">
              <mxPoint x="400" y="155" />
            </Array>
          </mxGeometry>
        </mxCell>
        <mxCell id="XMPrJLfJ1CrVb4G97n1Z-4" value="" style="endArrow=classic;html=1;rounded=0;strokeWidth=2;exitX=0;exitY=0.5;exitDx=0;exitDy=0;exitPerimeter=0;entryX=0.604;entryY=1.011;entryDx=0;entryDy=0;entryPerimeter=0;" parent="1" source="C7viJs1iNthSXS2Z9-nM-38" target="C7viJs1iNthSXS2Z9-nM-29" edge="1">
          <mxGeometry width="50" height="50" relative="1" as="geometry">
            <mxPoint x="385" y="402" as="sourcePoint" />
            <mxPoint x="420" y="210" as="targetPoint" />
            <Array as="points">
              <mxPoint x="398" y="242" />
            </Array>
          </mxGeometry>
        </mxCell>
        <mxCell id="XMPrJLfJ1CrVb4G97n1Z-8" value="&lt;font style=&quot;font-size: 20px;&quot;&gt;10 frames&lt;/font&gt;" style="text;html=1;strokeColor=none;fillColor=none;align=center;verticalAlign=middle;whiteSpace=wrap;rounded=0;fontSize=18;fontColor=#000000;" parent="1" vertex="1">
          <mxGeometry x="648.5" y="220" width="100" height="20" as="geometry" />
        </mxCell>
        <mxCell id="XMPrJLfJ1CrVb4G97n1Z-9" value="" style="sketch=0;aspect=fixed;pointerEvents=1;shadow=0;dashed=0;html=1;strokeColor=#B46504;labelPosition=center;verticalLabelPosition=bottom;verticalAlign=top;align=center;fillColor=#ffe6cc;shape=mxgraph.mscae.general.video;fontSize=30;" parent="1" vertex="1">
          <mxGeometry x="686.75" y="266.99" width="23.52" height="24" as="geometry" />
        </mxCell>
        <mxCell id="XMPrJLfJ1CrVb4G97n1Z-10" value="&lt;font style=&quot;font-size: 20px;&quot;&gt;20 frames&lt;/font&gt;" style="text;html=1;strokeColor=none;fillColor=none;align=center;verticalAlign=middle;whiteSpace=wrap;rounded=0;fontSize=18;fontColor=#000000;" parent="1" vertex="1">
          <mxGeometry x="638.5" y="290.99" width="120" height="20" as="geometry" />
        </mxCell>
        <mxCell id="XMPrJLfJ1CrVb4G97n1Z-15" value="" style="sketch=0;aspect=fixed;pointerEvents=1;shadow=0;dashed=0;html=1;strokeColor=#B46504;labelPosition=center;verticalLabelPosition=bottom;verticalAlign=top;align=center;fillColor=#ffe6cc;shape=mxgraph.mscae.general.video;fontSize=30;" parent="1" vertex="1">
          <mxGeometry x="686.75" y="192.98999999999998" width="23.52" height="24" as="geometry" />
        </mxCell>
      </root>
    </mxGraphModel>
  </diagram>
</mxfile>
